<svg width="68" height="70" viewBox="0 0 68 70" fill="none" xmlns="http://www.w3.org/2000/svg">
<rect width="68" height="70" fill="#3191C1"/>
<path d="M25.738 36.1811C25.0585 36.8045 24.3046 37.3441 23.4948 37.7535C21.568 38.7304 19.5761 38.9165 17.733 38.2838C15.9738 37.679 14.2239 38.0419 12.5205 39.3631C11.2267 40.3772 10.4448 41.5867 10.4355 41.6054C10.3424 41.7449 10.1563 41.7914 10.0167 41.7077C9.87704 41.624 9.8398 41.4379 9.92357 41.2983C9.96081 41.2425 13.2652 36.0974 17.9471 37.7163C20.0787 38.4513 21.9962 37.8558 23.2341 37.2231C25.3378 36.1532 27.1249 34.1249 27.7951 32.0594C27.8509 31.9012 28.0185 31.8082 28.1767 31.8547C28.335 31.9012 28.4187 32.0687 28.3722 32.2269C27.9161 33.6504 26.9574 35.0553 25.738 36.1811Z" fill="white"/>
<path d="M26.9202 20.3736L20.5162 22.5228L18.5988 16.0379L25.012 13.8887L26.9202 20.3736Z" fill="white"/>
<path d="M23.3562 53.8515C24.161 52.3064 23.6084 50.4267 22.1219 49.6532C20.6354 48.8796 18.7779 49.505 17.9732 51.0501C17.1684 52.5952 17.721 54.4749 19.2075 55.2485C20.694 56.0221 22.5515 55.3966 23.3562 53.8515Z" fill="white"/>
<path d="M13.846 27.8995C14.4158 26.8056 14.0238 25.4745 12.9704 24.9263C11.9171 24.3782 10.6014 24.8206 10.0316 25.9144C9.46187 27.0083 9.85388 28.3394 10.9072 28.8876C11.9605 29.4357 13.2763 28.9934 13.846 27.8995Z" fill="#D83F3F"/>
<path d="M28.3629 39.0841L27.6368 47.0763L34.9158 43.7175L28.3629 39.0841Z" fill="#22211B"/>
<path d="M21.5751 52.5537L8.79036 55.1561C8.79036 55.1561 7.19045 54.0875 7.13955 54.3056C7.08864 54.5164 7.57589 56.2901 7.96132 56.5445C8.34676 56.7989 18.528 56.5445 18.528 56.5445L21.5751 52.5537Z" fill="#EE5151"/>
<path d="M13.8446 53.7316C13.4083 54.5239 13.7501 58.8127 13.7719 58.9799C13.7937 59.1471 16.23 58.2094 16.23 58.2094L16.4409 54.6039L13.8446 53.7316Z" fill="#22211B"/>
<path d="M7.62683 58.1872C7.63408 58.2235 7.64858 58.2597 7.65583 58.3032C7.65583 58.3105 7.6631 58.3177 7.67036 58.3177C7.67761 58.325 7.68485 58.325 7.69936 58.325C7.71388 58.325 7.72114 58.325 7.73566 58.325C7.75017 58.325 7.76468 58.3177 7.77919 58.3177C7.80821 58.3105 7.82998 58.3032 7.85175 58.2887C7.859 58.2815 7.88077 58.267 7.87351 58.2525C7.86626 58.2162 7.85174 58.18 7.84449 58.1364C7.84449 58.1292 7.83724 58.1219 7.82998 58.1219C7.82273 58.1147 7.81547 58.1147 7.80095 58.1147C7.78644 58.1147 7.77917 58.1147 7.76466 58.1147C7.75015 58.1147 7.73564 58.1219 7.72113 58.1219C7.69211 58.1292 7.67036 58.1364 7.64859 58.1509C7.64134 58.1582 7.61957 58.1727 7.62683 58.1872Z" fill="#FF7991"/>
<path d="M8.63734 55.3233C8.58655 55.3813 8.54301 55.4466 8.52124 55.5264C8.52124 55.5336 8.52124 55.5336 8.52124 55.5409C8.52124 55.5481 8.52851 55.5481 8.53577 55.5481C8.55753 55.5554 8.58654 55.5481 8.60831 55.5481C8.63733 55.5409 8.66637 55.5336 8.6954 55.5191C8.70265 55.5191 8.70991 55.5118 8.71716 55.5118C8.72442 55.5046 8.73167 55.4973 8.73893 55.4901C8.7607 55.4248 8.79697 55.3596 8.8405 55.3088L8.83324 55.316L8.8405 55.3088C8.84776 55.3015 8.85502 55.2943 8.84776 55.2798C8.84051 55.2798 8.83325 55.2725 8.826 55.2725C8.81149 55.2725 8.80422 55.2725 8.7897 55.2725C8.76068 55.2725 8.73166 55.2798 8.70264 55.2943C8.69538 55.2943 8.68813 55.3015 8.68087 55.3015C8.6591 55.3015 8.64459 55.3088 8.63734 55.3233Z" fill="#FF3500"/>
<path d="M14.3027 50.8167C13.0664 51.7762 14.2373 56.9737 15.11 57.0391C15.9826 57.1045 30.1564 56.4649 30.1564 56.4649L42.2431 57.1554L40.1123 50.3224L30.571 51.3473L14.3027 50.8167Z" fill="white"/>
<path d="M15.5973 50.9765C15.2918 51.4126 15.1827 51.9723 15.3136 52.4884C15.3354 52.5757 15.5536 52.5175 15.5318 52.4303C15.4082 51.936 15.5027 51.4053 15.8009 50.991C15.83 50.9474 15.7718 50.9183 15.7355 50.9183C15.6918 50.911 15.6264 50.9328 15.5973 50.9765Z" fill="#003D39"/>
<path d="M21.5751 52.554C22.2587 54.0587 25.7057 57.5843 26.4475 57.6569C27.1893 57.7296 29.3201 50.8966 29.3201 50.8966L21.5751 52.554Z" fill="#22211B"/>
<path d="M26.7312 49.0212C26.7312 49.0212 35.3126 57.5552 37.2034 57.5843C39.0869 57.6133 37.7852 51.34 37.7852 51.34L31.4655 49.5591L26.7312 49.0212Z" fill="#22211B"/>
<path d="M25.4223 47.2549L21.3497 56.0215C21.3497 56.0215 19.4589 57.0828 19.6407 57.2282C19.8225 57.3736 23.0588 57.2282 23.0588 57.2282C23.5096 57.0683 28.4476 49.2757 28.4476 49.2757L25.4223 47.2549Z" fill="#EE5151"/>
<path d="M22.9787 53.1356L22.2588 54.066C22.2588 54.066 24.0914 56.7266 25.2841 57.6643C26.4768 58.602 26.0113 53.9933 26.0113 53.9933L23.6187 53.1428" fill="#22211B"/>
<path d="M21.0515 52.7428C23.1169 55.5923 25.844 55.6578 26.5276 55.8395C27.2112 56.0212 29.9238 49.508 29.9238 49.508L35.0653 55.8468C37.7779 59.0089 45.4866 57.6059 47.1156 54.9963C47.1447 54.9527 45.9084 54.5965 45.9375 54.5528C45.9375 54.5528 33.9163 41.0612 29.1384 42.1298C24.3604 43.1838 21.0515 52.7428 21.0515 52.7428Z" fill="white"/>
<path d="M39.9523 51.7323C39.705 52.3211 39.4214 52.9099 39.2541 53.5278C39.1087 54.0512 39.0796 54.6182 39.3196 55.1198C39.4359 55.3669 39.6177 55.585 39.8577 55.7304C39.9377 55.7813 40.1341 55.665 40.025 55.6068C39.6105 55.3596 39.4068 54.8944 39.3632 54.4292C39.3123 53.8404 39.5377 53.2661 39.7559 52.7355C39.8868 52.4084 40.025 52.0885 40.1632 51.7614C40.2068 51.6378 39.9886 51.6451 39.9523 51.7323Z" fill="#003D39"/>
<path d="M29.9237 48.7231C29.9819 49.0575 29.9382 49.3991 29.7928 49.7044C29.771 49.7553 29.8146 49.7844 29.8582 49.7917C29.9092 49.7989 29.9819 49.7771 30.0037 49.7262C30.1637 49.3919 30.2074 49.0211 30.1492 48.6577C30.1274 48.5632 29.9019 48.6213 29.9237 48.7231Z" fill="#22211B"/>
<path d="M40.2069 40.109L40.5197 39.4911L41.0287 38.4952C41.0287 38.4952 44.0322 36.031 45.6321 36.9251C45.6321 36.9251 53.2972 45.2846 47.9011 54.9018C47.4429 55.7159 46.4466 56.0576 45.5958 55.6796C43.6468 54.8291 40.3088 52.6192 38.5852 47.1746" fill="#22211B"/>
<path d="M41.8578 43.4019L43.734 43.0094C43.734 43.0094 45.5885 44.7685 44.4031 48.4831C43.2177 52.1977 48.381 55.3016 46.0394 56.0576C43.6904 56.8063 37.7853 54.1167 37.7853 54.1167L40.2797 46.4768L41.8578 43.4019Z" fill="black"/>
<path d="M42.1632 34.2065C42.8701 34.2065 43.4432 33.5654 43.4432 32.7745C43.4432 31.9836 42.8701 31.3425 42.1632 31.3425C41.4564 31.3425 40.8833 31.9836 40.8833 32.7745C40.8833 33.5654 41.4564 34.2065 42.1632 34.2065Z" fill="#080806"/>
<path d="M42.1632 32.9562C42.1632 32.9562 40.8905 35.1733 41.1523 35.3769C41.4141 35.5731 42.3813 35.6822 42.3813 35.6822L43.6176 37.6012L45.4503 36.9979L44.214 33.6105L42.1632 32.9562Z" fill="#EE5151"/>
<path d="M41.7269 35.8132L42.3814 35.6824L43.2032 35.8132L42.4323 36.1767L41.7269 35.8132Z" fill="#22211B"/>
<path d="M43.6539 32.7383C44.2604 32.7383 44.752 32.2469 44.752 31.6407C44.752 31.0345 44.2604 30.543 43.6539 30.543C43.0474 30.543 42.5558 31.0345 42.5558 31.6407C42.5558 32.2469 43.0474 32.7383 43.6539 32.7383Z" fill="#080806"/>
<path d="M43.203 34.3373C43.8095 34.3373 44.3011 33.8459 44.3011 33.2397C44.3011 32.6335 43.8095 32.142 43.203 32.142C42.5965 32.142 42.1049 32.6335 42.1049 33.2397C42.1049 33.8459 42.5965 34.3373 43.203 34.3373Z" fill="#080806"/>
<path d="M44.403 34.9335C45.0095 34.9335 45.5012 34.442 45.5012 33.8358C45.5012 33.2296 45.0095 32.7382 44.403 32.7382C43.7966 32.7382 43.3049 33.2296 43.3049 33.8358C43.3049 34.442 43.7966 34.9335 44.403 34.9335Z" fill="#080806"/>
<path d="M44.5411 33.8357C45.1476 33.8357 45.6392 33.3442 45.6392 32.738C45.6392 32.1318 45.1476 31.6404 44.5411 31.6404C43.9346 31.6404 43.443 32.1318 43.443 32.738C43.443 33.3442 43.9346 33.8357 44.5411 33.8357Z" fill="#080806"/>
<path d="M44.3522 35.2751C44.6936 35.2751 44.9703 34.9529 44.9703 34.5555C44.9703 34.158 44.6936 33.8358 44.3522 33.8358C44.0108 33.8358 43.734 34.158 43.734 34.5555C43.734 34.9529 44.0108 35.2751 44.3522 35.2751Z" fill="#EE5151"/>
<path d="M35.7489 43.6126C34.7671 42.6749 34.2508 42.7403 33.7854 42.4568C33.3127 42.1806 32.5709 41.1774 32.3091 41.3664C32.0473 41.5554 32.6509 42.6458 32.9345 43.0965C33.4436 43.8888 35.1962 46.055 35.1962 46.055L35.7489 43.6126Z" fill="#EE5151"/>
<path d="M34.4473 42.9002C34.1273 43.5835 34.3527 46.055 34.7818 46.2804C35.2109 46.5057 35.7563 44.6666 35.7563 44.6666L34.4473 42.9002Z" fill="black"/>
<path d="M36.7817 44.9284L37.1598 45.4881H37.4943L40.2797 42.2969L34.0473 36.8596L31.7128 39.0694L31.4656 39.3384L35.6181 43.0456L36.7817 44.9284Z" fill="#FEBD44"/>
<path d="M31.7126 39.0693C31.7126 39.0693 32.4399 36.903 33.7562 37.0775L40.0831 42.3113L37.4505 45.328L31.7126 39.0693Z" fill="#FCF5F0"/>
<path d="M31.2036 38.3427L30.8109 38.837L37.4506 45.3284L38.076 44.3107L31.2036 38.3427Z" fill="#FEE1CE"/>
<path d="M30.4618 39.5929L30.2437 39.2004L30.8618 38.6407L37.7851 44.5578L37.2033 44.8776L30.4618 39.5929Z" fill="#FFCAA5"/>
<path d="M29.9674 38.975L30.5128 40.1889L37.1597 45.4882L37.2034 44.8776L29.9674 38.975Z" fill="#FEBD44"/>
<path d="M41.4868 41.1705C40.5778 41.1341 38.5343 40.1746 38.0761 40.0873C37.6107 40.0001 38.1634 40.9887 38.5924 41.1705C39.0215 41.3522 39.7196 41.9773 39.7196 41.9773L41.2977 41.832L41.4868 41.1705Z" fill="#EE5151"/>
<path d="M45.3921 36.3872L45.6393 36.9324L40.8905 39.0623L41.0578 37.8629L45.3921 36.3872Z" fill="white"/>
<path d="M35.8216 42.1153C34.0908 44.5505 34.6217 46.724 34.6217 46.724C34.6217 46.724 38.7524 51.3254 40.3232 51.3327C41.894 51.3399 48.4027 39.2876 44.3084 38.1318C40.2068 36.976 37.9306 43.6928 37.9306 43.6928L35.8216 42.1153Z" fill="#22211B"/>
<path d="M56.2061 22.5617H45.7267V58.2752H56.2061V22.5617Z" fill="#EE5151"/>
<path d="M53.1227 18.9709C52.6936 19.2616 52.7227 19.8359 52.7954 20.2939C52.8972 20.8827 53.0936 21.4569 53.3699 21.9803C53.5299 22.2856 53.719 22.5764 53.9299 22.8454C53.9881 22.918 54.199 22.8308 54.1335 22.7508C53.7845 22.3074 53.5008 21.8059 53.2972 21.2752C53.1954 21.0135 53.1154 20.7446 53.0572 20.4756C53.0063 20.2284 52.9554 19.9813 52.9699 19.7269C52.9772 19.4797 53.0427 19.2035 53.2609 19.0581C53.2972 19.0363 53.319 18.9854 53.2754 18.9563C53.2318 18.9273 53.159 18.9491 53.1227 18.9709Z" fill="#FFD14D"/>
<path d="M51.741 17.0225C50.7665 17.495 49.7847 18.0039 48.9848 18.7598C48.2503 19.4577 47.6757 20.3881 47.5667 21.4204C47.4648 22.4017 47.8576 23.3104 48.5048 24.0227C49.1738 24.7569 50.0465 25.2658 50.9265 25.6874C52.9773 26.6687 55.2099 27.1776 57.4352 27.5338C57.9879 27.621 58.5406 27.7009 59.1006 27.7736C59.6024 27.8391 60.1769 27.8609 60.5333 28.2825C60.8096 28.6096 60.8605 29.0748 60.8314 29.4892C60.7951 29.9471 60.6569 30.3833 60.4969 30.8122C59.7697 32.7676 58.5625 34.5413 57.0207 35.9224C56.8389 36.0896 56.6426 36.2495 56.4535 36.4022C56.4171 36.4312 56.4317 36.4676 56.4753 36.4748C56.5262 36.4894 56.5916 36.4603 56.628 36.4312C58.2279 35.1591 59.5151 33.4945 60.366 31.6118C60.5769 31.1538 60.7733 30.674 60.9114 30.1943C61.0278 29.7799 61.1005 29.3438 61.0423 28.9149C60.9841 28.5006 60.7805 28.1298 60.4169 27.9263C60.1915 27.7954 59.9224 27.7446 59.6679 27.7082C59.3915 27.6646 59.1079 27.6355 58.8315 27.5919C56.6062 27.2866 54.3736 26.8868 52.2646 26.0726C51.2901 25.6946 50.3083 25.244 49.4647 24.6043C48.7157 24.0373 48.0539 23.2885 47.8357 22.3436C47.603 21.3186 47.9666 20.25 48.5775 19.4286C49.2248 18.549 50.1629 17.953 51.1083 17.4514C51.341 17.3278 51.581 17.2115 51.821 17.0952C51.8501 17.0807 51.9082 17.0516 51.8792 17.008C51.8573 16.9862 51.7628 17.0152 51.741 17.0225Z" fill="white"/>
<path d="M54.4971 25.5856H47.2902V28.0208H54.4971V25.5856Z" fill="white"/>
<path d="M54.4971 30.0852H47.2902V53.2812H54.4971V30.0852Z" fill="white"/>
<path d="M30 59C22.268 59 16 59.8954 16 61C16 62.1046 22.268 63 30 63C37.732 63 44 62.1046 44 61C44 59.8954 37.732 59 30 59Z" fill="#1C1715"/>
</svg>
