<svg width="68" height="70" viewBox="0 0 68 70" fill="none" xmlns="http://www.w3.org/2000/svg">
<rect width="68" height="70" fill="#008B66"/>
<path d="M25.738 36.1811C25.0585 36.8045 24.3046 37.3441 23.4948 37.7535C21.568 38.7304 19.5761 38.9165 17.733 38.2838C15.9738 37.679 14.2239 38.0419 12.5205 39.3631C11.2267 40.3772 10.4448 41.5867 10.4355 41.6054C10.3424 41.7449 10.1563 41.7914 10.0167 41.7077C9.87704 41.624 9.8398 41.4379 9.92357 41.2983C9.96081 41.2425 13.2652 36.0974 17.9471 37.7163C20.0787 38.4513 21.9962 37.8558 23.2341 37.2231C25.3378 36.1532 27.1249 34.1249 27.7951 32.0594C27.8509 31.9012 28.0185 31.8082 28.1767 31.8547C28.335 31.9012 28.4187 32.0687 28.3722 32.2269C27.9161 33.6504 26.9574 35.0553 25.738 36.1811Z" fill="white"/>
<path d="M26.9202 20.3736L20.5162 22.5228L18.5988 16.0379L25.012 13.8887L26.9202 20.3736Z" fill="white"/>
<path d="M23.3562 53.8515C24.161 52.3064 23.6084 50.4267 22.1219 49.6532C20.6354 48.8796 18.7779 49.505 17.9732 51.0501C17.1684 52.5952 17.721 54.4749 19.2075 55.2485C20.694 56.0221 22.5515 55.3966 23.3562 53.8515Z" fill="white"/>
<path d="M13.846 27.8995C14.4158 26.8056 14.0238 25.4745 12.9704 24.9263C11.9171 24.3782 10.6014 24.8206 10.0316 25.9144C9.46187 27.0083 9.85388 28.3394 10.9072 28.8876C11.9605 29.4357 13.2763 28.9934 13.846 27.8995Z" fill="#D83F3F"/>
<path d="M28.3629 39.0841L27.6368 47.0763L34.9158 43.7175L28.3629 39.0841Z" fill="#22211B"/>
<path d="M35.8158 7.84199C36.023 7.7039 35.7928 9.02733 35.7928 9.02733C35.7928 9.02733 39.1201 15.9322 39.3849 16.5652C39.6382 17.1981 44.6579 21.1339 44.796 21.8359C44.9342 22.5379 46.5921 25.9213 43.1957 25.6451C39.8109 25.3574 37.1859 18.1073 36.3569 17.4858C35.5165 16.8529 34.7106 9.60274 34.6069 9.16543C34.3421 8.09517 34.7451 6.54157 35.1595 7.12849C35.574 7.7039 35.3668 8.14121 35.8158 7.84199Z" fill="white"/>
<path d="M34.1004 11.9159C34.1004 11.9159 36.0116 10.2932 36.2879 10.3393C36.5642 10.3853 36.8635 12.123 36.6563 12.3992C36.4491 12.6754 35.7583 13.2393 35.4589 13.1358C35.1481 13.0437 34.1004 11.9159 34.1004 11.9159Z" fill="#22211B"/>
<path d="M36.6564 10.1204C35.0906 10.7763 33.2254 14.8157 33.2254 14.8157C33.2254 14.8157 35.954 18.5558 36.8175 20.5237C37.7271 22.5722 41.0659 28.3032 44.9343 25.7139C48.9755 22.998 40.1333 17.5201 39.9031 17.0828L36.6564 10.1204Z" fill="#F5C84B"/>
<path d="M43.2879 19.339C43.7023 20.087 42.6086 22.6188 42.6086 22.6188L45.2681 22.4577C45.2681 22.4577 45.0609 20.3287 45.7056 19.5692C46.0625 19.1549 43.1382 19.6267 43.1382 19.6267" fill="white"/>
<path d="M41.9984 20.9842L44.8076 19.8219C44.8076 19.8219 43.3915 18.9357 43.1728 19.0393C42.954 19.1429 41.8487 20.754 41.8487 20.754" fill="#22211B"/>
<path d="M52.7747 52.839L56.7352 64.6809C56.7352 64.6809 52.8783 65.0606 52.3372 64.9916C51.7846 64.934 53.2698 63.3574 53.5115 63.0122C53.7533 62.6669 48.8257 52.2175 48.8257 52.2175L52.7747 52.839Z" fill="white"/>
<path d="M57.2993 60.9406C52.5444 60.4112 51.8421 58.8001 51.8421 58.8001L55.4687 57.5457L57.2993 60.9406Z" fill="#1C1715"/>
<path d="M41.1578 50.1691V64.865C41.1578 64.865 37.2894 64.911 36.7483 64.8074C36.2072 64.7039 38.5098 63.1388 38.7861 62.8165C39.0624 62.4943 37.5657 51.504 37.5657 51.504L41.1578 50.1691Z" fill="white"/>
<path d="M42.6085 59.9511C39.972 59.18 38.0723 57.5344 38.0723 57.5344L41.4342 56.4641L42.6085 59.9511Z" fill="#1C1715"/>
<path d="M44.5773 58.6159C38.4408 59.7206 34.3767 55.5662 34.3767 55.5662C34.3767 55.5662 36.5872 45.9454 37.4046 43.8854C38.2221 41.8255 41.653 31.6638 41.653 31.6638L49.0905 35.3694C49.0905 35.3694 45.6711 42.5275 43.0921 47.0386C42.6086 50.1689 44.5773 58.6159 44.5773 58.6159Z" fill="#00378D"/>
<path d="M46.2006 37.6597L43 36.762L42.2056 36.67C42.2056 36.67 41.2385 37.0843 42.3092 40.3526C43.3799 43.6094 41.4572 46.2908 43.0345 47.7869C44.6118 49.2829 48.4688 45.0479 48.4688 45.0479L46.2006 37.6597Z" fill="#1C1715"/>
<path d="M47.4902 20.0407C45.36 20.0407 43.6332 18.9329 43.6332 17.5664C43.6332 16.1999 45.36 15.0922 47.4902 15.0922C49.6203 15.0922 51.347 16.1999 51.347 17.5664C51.347 18.9329 49.6203 20.0407 47.4902 20.0407Z" fill="#1C1715"/>
<path d="M59.9819 55.5663C58.2665 61.4125 49.4244 59.4906 48.1579 57.3271C46.8915 55.1636 44.4507 45.3011 44.4507 45.3011L40.9277 31.756L48.8142 30.6282C48.8142 30.6282 49.5165 31.6984 51.6234 43.805C52.4639 48.5924 59.9819 55.5663 59.9819 55.5663Z" fill="#00378D"/>
<path d="M55.9292 41.9752C47.7664 39.0982 49.9539 36.2211 45.3256 35.3695C40.6973 34.5179 40.939 31.756 40.939 31.756L50.472 30.6282C50.472 30.6282 48.5377 29.5924 50.472 30.6282C52.3947 31.6639 55.9292 41.9752 55.9292 41.9752Z" fill="#1C1715"/>
<path d="M52.3947 31.6638C47.3634 38.1428 40.513 32.2622 40.513 32.2622C40.513 32.2622 41.9867 27.5553 40.6052 26.2204C39.2236 24.897 40.1792 23.1132 44.8765 21.8588C44.8765 21.8588 45.5213 21.2374 46.995 25.6335C48.4687 30.0296 52.3947 31.6638 52.3947 31.6638Z" fill="#FFC754"/>
<path d="M38.6478 28.6486C38.6478 28.6486 44.8189 27.3252 44.8074 24.5747C44.7958 21.8243 41.5146 23.3779 41.5146 23.3779C41.5146 23.3779 39.1659 27.2792 38.9126 27.9581C38.6478 28.6486 38.6478 28.6486 38.6478 28.6486Z" fill="#1C1715"/>
<path d="M44.1859 16.8184C43.311 17.6355 42.5857 18.982 43.1268 19.6494C43.6679 20.3169 45.2221 20.7887 45.6942 20.0407C46.1662 19.2927 46.0165 17.4744 46.0165 17.4744L44.1859 16.8184Z" fill="white"/>
<path d="M44.2335 18.2078C43.9074 17.0781 44.3216 15.9666 45.1585 15.7252C45.9955 15.4839 46.9384 16.204 47.2644 17.3337C47.5905 18.4634 47.1764 19.5749 46.3394 19.8163C45.5024 20.0577 44.5596 19.3375 44.2335 18.2078Z" fill="#1C1715"/>
<path d="M45.4522 20.3054C45.0962 20.3054 44.8075 20.089 44.8075 19.822C44.8075 19.5551 45.0962 19.3387 45.4522 19.3387C45.8083 19.3387 46.0969 19.5551 46.0969 19.822C46.0969 20.089 45.8083 20.3054 45.4522 20.3054Z" fill="white"/>
<path d="M31.2337 11.0874C31.3833 10.8918 31.5676 12.2267 31.5676 12.2267C31.5676 12.2267 36.806 17.8197 37.2435 18.3491C37.681 18.8785 43.6448 21.1341 43.9787 21.7555C44.3126 22.3884 46.9146 25.1274 43.5988 25.8639C40.283 26.6119 35.3554 20.3975 34.3768 20.0523C33.3866 19.707 30.6811 13.1014 30.4623 12.6986C29.9212 11.6859 29.806 10.1553 30.3817 10.5926C30.9574 11.0299 30.8998 11.5017 31.2337 11.0874Z" fill="white"/>
<path d="M30.0018 15.8289L32.7189 13.0209L32.8456 15.4836C32.8456 15.4836 32.5808 16.0936 32.5002 16.082C32.4196 16.0705 30.0018 15.8289 30.0018 15.8289Z" fill="#22211B"/>
<path d="M32.7188 13.0093C31.4178 14.1026 30.8537 18.5217 30.8537 18.5217C30.8537 18.5217 34.5724 21.2721 35.9886 22.8948C37.4623 24.575 42.3669 29.0516 45.2797 25.4266C48.3307 21.6174 38.2452 19.0395 37.8998 18.6943L32.7188 13.0093Z" fill="#FFC754"/>
</svg>
