<svg width="68" height="70" viewBox="0 0 68 70" fill="none" xmlns="http://www.w3.org/2000/svg">
<rect width="68" height="70" fill="#D83F3F"/>
<path d="M52.0826 37.2924C51.4031 37.9158 50.6492 38.4554 49.8394 38.8648C47.9126 39.8417 45.9207 40.0278 44.0777 39.3951C42.3184 38.7904 40.5685 39.1532 38.8651 40.4744C37.5713 41.4886 36.7894 42.6981 36.7801 42.7167C36.687 42.8562 36.5009 42.9028 36.3613 42.819C36.2216 42.7353 36.1844 42.5492 36.2682 42.4096C36.3054 42.3538 39.6098 37.2087 44.2918 38.8276C46.4233 39.5626 48.3408 38.9672 49.5787 38.3345C51.6824 37.2645 53.4695 35.2362 54.1397 33.1707C54.1956 33.0126 54.3631 32.9195 54.5213 32.966C54.6796 33.0126 54.7633 33.18 54.7168 33.3382C54.2607 34.7617 53.302 36.1666 52.0826 37.2924Z" fill="white"/>
<path d="M53.2648 21.4849L46.8609 23.6341L44.9434 17.1492L51.3566 15L53.2648 21.4849Z" fill="white"/>
<path d="M49.7009 54.9628C50.5056 53.4177 49.953 51.5381 48.4665 50.7645C46.98 49.9909 45.1225 50.6164 44.3178 52.1615C43.513 53.7066 44.0656 55.5862 45.5521 56.3598C47.0386 57.1334 48.8961 56.508 49.7009 54.9628Z" fill="white"/>
<path d="M40.1906 29.0108C40.7604 27.9169 40.3684 26.5858 39.315 26.0376C38.2617 25.4895 36.946 25.9319 36.3762 27.0258C35.8065 28.1196 36.1985 29.4508 37.2518 29.9989C38.3051 30.5471 39.6209 30.1047 40.1906 29.0108Z" fill="#D83F3F"/>
<path d="M54.7075 40.1954L53.9814 48.1876L61.2604 44.8288L54.7075 40.1954Z" fill="#22211B"/>
<path d="M36.3777 14.2296C37.3086 13.6939 37.8728 12.9325 37.9433 12.8761C38.0138 12.8197 38.1408 11.8187 38.3806 11.9456C38.6204 12.0725 39.9039 12.7774 39.6218 13.567C39.5372 13.7926 36.3636 17.3737 36.3636 17.3737V14.0886" fill="#FF7B8C"/>
<path d="M16.8141 55.5675L12.0184 61.9966C12.0607 63.336 11.9056 64.9997 11.9056 64.9997L8.99996 61.5736L13.9367 53.0438L16.8141 55.5675Z" fill="#FF7B8C"/>
<path d="M14.9099 61.9684C12.1171 59.5434 11.6798 56.9774 11.6798 56.9774H17.1244L15.8691 63.1104" fill="#1C1715"/>
<path d="M26.2361 54.9614L25.9257 62.8426C26.7156 63.7027 27.5337 64.9152 27.5337 64.9152L22.8508 64.9998V55.5958L26.2361 54.9614Z" fill="#FF7B8C"/>
<path d="M29.4238 61.4751C26.5746 60.7842 22.8368 58.2464 22.8368 58.2464L27.5197 56.9916L29.4238 61.4751Z" fill="#22211B"/>
<path d="M16.0524 60.9395C14.0777 60.4742 9.77562 55.0038 9.86025 53.6222C9.86025 53.6222 14.9663 47.4327 15.7844 44.6694C15.7844 44.6694 15.5446 31.2472 16.8281 30.4859C18.1117 29.7245 26.2362 37.6763 26.2362 37.6763L24.2474 38.198C24.2333 38.198 18.817 57.9082 16.0524 60.9395Z" fill="#22211B"/>
<path d="M23.9229 49.1388C17.5052 47.4046 18.8311 40.5949 17.4911 38.5646C16.1652 36.5485 17.1808 34.3773 17.1808 34.3773C17.1808 34.3773 25.3898 42.611 25.2911 43.2455C25.1924 43.8799 24.4448 50.0129 24.4448 50.0129" fill="#19150B"/>
<path d="M19.1273 12.8337C21.7227 13.3131 21.765 13.5105 21.7227 13.8348C21.6804 14.159 21.7227 15.3292 21.7227 15.3292L23.2037 16.1752L21.3559 18.4169L19.5364 18.0926V16.6686L18.0836 15.9073L19.1273 12.8337Z" fill="#FF7B8C"/>
<path d="M22.2868 14.2297L21.7368 15.3294L21.7085 15.6678L22.4843 15.3012L23.8666 15.2025L23.0485 15.9215L22.2868 14.2297Z" fill="#22211B"/>
<path d="M18.4361 13.8912C17.5948 13.8912 16.9128 13.2663 16.9128 12.4954C16.9128 11.7245 17.5948 11.0996 18.4361 11.0996C19.2775 11.0996 19.9595 11.7245 19.9595 12.4954C19.9595 13.2663 19.2775 13.8912 18.4361 13.8912Z" fill="#22211B"/>
<path d="M18.6476 17.0214C17.8063 17.0214 17.1243 16.3965 17.1243 15.6257C17.1243 14.8548 17.8063 14.2299 18.6476 14.2299C19.4889 14.2299 20.1709 14.8548 20.1709 15.6257C20.1709 16.3965 19.4889 17.0214 18.6476 17.0214Z" fill="#22211B"/>
<path d="M17.9 15.2871C17.0587 15.2871 16.3766 14.6622 16.3766 13.8913C16.3766 13.1205 17.0587 12.4955 17.9 12.4955C18.7413 12.4955 19.4233 13.1205 19.4233 13.8913C19.4233 14.6622 18.7413 15.2871 17.9 15.2871Z" fill="#22211B"/>
<path d="M17.1243 14.3848C16.4466 14.3848 15.8972 13.8798 15.8972 13.2569C15.8972 12.6339 16.4466 12.129 17.1243 12.129C17.802 12.129 18.3514 12.6339 18.3514 13.2569C18.3514 13.8798 17.802 14.3848 17.1243 14.3848Z" fill="#22211B"/>
<path d="M16.8986 15.7807C16.2208 15.7807 15.6714 15.2757 15.6714 14.6528C15.6714 14.0299 16.2208 13.5249 16.8986 13.5249C17.5763 13.5249 18.1257 14.0299 18.1257 14.6528C18.1257 15.2757 17.5763 15.7807 16.8986 15.7807Z" fill="#22211B"/>
<path d="M36.8996 14.3846C38.4793 14.8217 41.0323 17.7966 40.1719 18.7412C39.2974 19.6999 34.7132 18.7412 33.3874 20.2357C32.0615 21.7302 27.8582 26.7635 23.1189 26.7917C18.3656 26.834 20.8339 22.0262 20.8339 22.0262L36.8996 14.3846Z" fill="#EDDFCA"/>
<path d="M27.4635 59.2336C22.0754 59.2336 19.0005 55.4974 19.0005 55.4974C19.0005 55.4974 22.2023 47.038 21.1867 44.9232C20.1571 42.8084 14.783 33.348 15.7986 29.6118H25.5452C25.5452 29.6118 28.1687 41.3985 28.2957 42.7661C28.4226 44.1478 27.4635 59.2336 27.4635 59.2336Z" fill="#22211B"/>
<path d="M32.4002 41.2857C25.517 40.8064 28.3098 33.4468 22.8371 34.3209C17.3502 35.195 16.25 33.7851 15.9961 32.77C15.7422 31.7549 25.7286 30.204 26.2222 30.4437C26.7159 30.6834 29.3112 30.4155 29.7626 30.8385C30.214 31.2473 34.6711 36.2383 34.6006 37.2816C34.5301 38.325 32.4002 41.2857 32.4002 41.2857Z" fill="#19150B"/>
<path d="M22.9637 15.7245C22.9637 15.7245 29.7905 30.8244 25.3475 32.5727C19.5645 34.8708 15.8126 34.6311 14.8675 30.7962C13.9084 26.9613 16.6447 16.6127 22.9637 15.7245Z" fill="white"/>
<path d="M21.37 18.4315C21.37 18.4315 18.5913 19.7145 20.6647 24.4517C24.8539 34.053 12.5826 31.9523 14.6842 33.6582C16.7858 35.3783 31.5397 35.2514 31.5397 35.2514L29.6073 22.4778L21.37 18.4315Z" fill="#F9F0E1"/>
<path d="M33.4015 9.29512C34.3324 8.75937 34.8966 7.99803 34.9672 7.94163C35.0377 7.88524 35.1646 6.88422 35.4044 7.01111C35.6442 7.138 36.9277 7.84294 36.6456 8.63247C36.561 8.85806 33.3874 12.4392 33.3874 12.4392V9.15414" fill="#FF7B8C"/>
<path d="M37.8024 13.8207C39.2129 11.6917 33.6697 8.92834 33.6697 8.92834C33.6697 8.92834 26.0247 13.6797 24.8822 14.3282C23.7538 14.9768 20.4674 16.1329 19.9596 18.5861C19.4518 21.0393 19.6634 25.7765 23.6833 24.0846C25.5452 23.2951 27.3789 17.9939 28.6201 17.8388C28.6201 17.8247 35.8136 16.8096 37.8024 13.8207Z" fill="white"/>
</svg>
