<svg width="68" height="70" viewBox="0 0 68 70" fill="none" xmlns="http://www.w3.org/2000/svg">
<rect width="68" height="70" fill="#FFC754"/>
<path d="M47.9047 36.0057C48.4535 36.5092 49.0625 36.9451 49.7166 37.2757C51.2728 38.0648 52.8817 38.2151 54.3703 37.7041C55.7913 37.2156 57.2047 37.5087 58.5805 38.5758C59.6256 39.395 60.2571 40.3719 60.2646 40.3869C60.3398 40.4996 60.4901 40.5372 60.6029 40.4696C60.7157 40.4019 60.7457 40.2516 60.6781 40.1389C60.648 40.0938 57.9791 35.9381 54.1974 37.2457C52.4757 37.8394 50.927 37.3584 49.9271 36.8474C48.228 35.9832 46.7845 34.3449 46.2432 32.6766C46.1981 32.5489 46.0627 32.4737 45.9349 32.5113C45.8071 32.5489 45.7395 32.6841 45.777 32.8119C46.1454 33.9617 46.9198 35.0964 47.9047 36.0057Z" fill="white"/>
<path d="M46.9499 23.2379L52.1224 24.9738L53.6711 19.7359L48.4911 18L46.9499 23.2379Z" fill="white"/>
<path d="M49.8285 50.2783C49.1785 49.0303 49.6248 47.5121 50.8255 46.8872C52.0261 46.2624 53.5264 46.7676 54.1764 48.0156C54.8265 49.2636 54.3801 50.7818 53.1794 51.4066C51.9788 52.0314 50.4785 51.5263 49.8285 50.2783Z" fill="white"/>
<path d="M57.5099 29.3165C57.0497 28.433 57.3664 27.3578 58.2171 26.9151C59.0679 26.4724 60.1306 26.8297 60.5908 27.7132C61.051 28.5967 60.7344 29.6719 59.8836 30.1146C59.0329 30.5574 57.9701 30.2001 57.5099 29.3165Z" fill="#D83F3F"/>
<path d="M45.7846 38.3503L46.371 44.8057L40.4917 42.0928L45.7846 38.3503Z" fill="#22211B"/>
<path d="M46.0121 20.3224C46.3188 20.1008 46.4345 19.7375 46.2707 19.5109C46.1068 19.2843 45.7253 19.2803 45.4187 19.5019C45.112 19.7235 44.9963 20.0869 45.1601 20.3134C45.324 20.54 45.7054 20.544 46.0121 20.3224Z" fill="#007B8E"/>
<path d="M48.0167 15.6323C48.1901 15.5071 48.2551 15.3011 48.1619 15.1722C48.0687 15.0434 47.8526 15.0405 47.6793 15.1658C47.506 15.291 47.441 15.497 47.5342 15.6258C47.6274 15.7547 47.8434 15.7576 48.0167 15.6323Z" fill="#FFD04E"/>
<path d="M50.2747 26.3269C50.5473 26.1331 50.6575 25.8203 50.5208 25.6282C50.3842 25.4361 50.0524 25.4375 49.7798 25.6313C49.5071 25.8251 49.3969 26.138 49.5336 26.33C49.6703 26.5221 50.0021 26.5207 50.2747 26.3269Z" fill="#007D8E"/>
<path d="M33.3754 48.5018C33.648 48.308 33.7582 47.9951 33.6215 47.8031C33.4848 47.611 33.1531 47.6124 32.8805 47.8062C32.6078 48 32.4976 48.3128 32.6343 48.5049C32.771 48.697 33.1028 48.6956 33.3754 48.5018Z" fill="#007D8E"/>
<path d="M58.0786 14.6491C58.3341 14.4333 58.4179 14.1124 58.2658 13.9324C58.1136 13.7523 57.7831 13.7813 57.5275 13.997C57.272 14.2128 57.1882 14.5337 57.3403 14.7138C57.4925 14.8938 57.8231 14.8649 58.0786 14.6491Z" fill="#6884FF"/>
<path d="M48.8509 35.356C49.0242 35.2308 49.0892 35.0248 48.996 34.8959C48.9028 34.7671 48.6867 34.7642 48.5134 34.8895C48.3401 35.0147 48.2751 35.2207 48.3683 35.3495C48.4615 35.4784 48.6775 35.4813 48.8509 35.356Z" fill="#FFD04E"/>
<path d="M51.1088 46.0496C51.3814 45.8558 51.4916 45.5429 51.3549 45.3508C51.2182 45.1588 50.8864 45.1602 50.6138 45.354C50.3412 45.5478 50.231 45.8606 50.3677 46.0527C50.5044 46.2448 50.8362 46.2434 51.1088 46.0496Z" fill="#007D8E"/>
<path d="M58.9139 34.3702C59.1694 34.1545 59.2532 33.8336 59.1011 33.6535C58.9489 33.4735 58.6184 33.5024 58.3629 33.7182C58.1073 33.934 58.0235 34.2549 58.1757 34.4349C58.3278 34.615 58.6584 34.586 58.9139 34.3702Z" fill="#6884FF"/>
<path d="M44.4794 57C39.1967 57 35.5525 54.3201 32.4345 56.2853C32.4345 56.2853 28.3831 54.7866 26.0794 56.0967C26.0794 56.0967 24.6396 53.3871 18.4831 55.134C12.3266 56.8809 10.7676 56.8511 10.7676 56.8511C10.7676 56.8511 49.772 57 44.4794 57Z" fill="white"/>
<path d="M52.7709 56.6326C47.4882 56.6326 43.844 50.4192 40.726 54.975C40.726 54.975 36.6746 51.511 34.3709 54.5383C34.3709 54.5383 32.9311 48.2555 26.7746 52.2951C20.6181 56.3348 19.0591 56.2654 19.0591 56.2654C19.0591 56.2654 58.0536 56.6326 52.7709 56.6326Z" fill="white"/>
<path d="M52.9892 54.5384L52.3637 53.0893L47.647 48.3648L49.9309 46.7767L54.0815 51.6203L54.9256 52.9901L52.9892 54.5384Z" fill="white"/>
<path d="M49.6329 53.4464C51.6387 50.6772 51.1919 48.2355 51.1919 48.2355C51.1919 48.2355 48.3818 48.2355 48.3818 48.573C48.3818 48.9105 48.0541 54.9154 48.0541 54.9154" fill="#1C1715"/>
<path d="M59.1856 49.546L53.2277 56.6825C53.2277 56.6825 52.1354 55.3028 52.0162 53.3673C52.0162 53.3673 54.2703 54.0423 54.0717 51.6105C54.0717 51.6105 55.3824 52.2656 56.4151 50.747C57.4478 49.2284 59.1856 49.546 59.1856 49.546Z" fill="#D83F3F"/>
<path d="M51.3708 47.6896C50.1991 52.0271 44.7079 53.7839 44.7079 53.7839L40.2097 42.5085L31.7693 36.4241L36.2675 28.4043L46.1179 40.3546L51.3708 47.6896Z" fill="#D83F3F"/>
<path d="M33.5963 31.6697L36.8334 32.4339C36.8334 32.4339 36.3369 39.4215 34.9269 41.8136C33.5169 44.2056 30.2003 37.8235 30.2003 37.8235L33.5963 31.6697Z" fill="#1C1715"/>
<path d="M33.6857 20.1467C30.0613 23.9084 33.2785 24.7422 33.2785 24.7422C33.2785 24.7422 42.692 25.5462 41.421 20.4841C40.5373 16.9705 33.6857 20.1467 33.6857 20.1467Z" fill="#1C1715"/>
<path d="M22.018 23.6803C21.2634 23.6009 21.0846 24.0277 21.4719 24.0872C21.8592 24.1468 21.1244 24.4049 21.4223 24.5339C21.7202 24.6629 22.2365 24.4446 22.0081 24.7026C21.7797 24.9607 22.1471 25.1393 22.4748 24.9111C22.8025 24.6828 30.0612 24.2659 31.2131 24.3453C32.3649 24.4247 39.296 23.9086 39.296 23.9086C39.296 23.9086 38.5115 19.6108 38.0249 19.4619C37.5384 19.3131 30.7861 21.0203 30.2102 21.2287C29.6342 21.4371 22.018 23.6803 22.018 23.6803Z" fill="white"/>
<path d="M16.0105 28.5432L16.9439 29.6449L21.5812 33.4464L19.4661 35.5109L14.6005 30.8956L13.8259 29.6449L16.0105 28.5432Z" fill="white"/>
<path d="M16.4971 34.4688C16.4375 31.1041 18.1753 29.0495 18.1753 29.0495L19.2576 31.5408L16.4971 34.4688Z" fill="#1C1715"/>
<path d="M9 32.077L15.9409 26.6974C15.9409 26.6974 16.9836 27.9976 16.9439 29.6453C16.9439 29.6453 14.6104 28.8215 14.6104 30.9058C14.6104 30.9058 13.2798 30.2011 12.0485 31.3723C10.8172 32.5435 9 32.077 9 32.077Z" fill="#D83F3F"/>
<path d="M14.4316 36.4638C18.5624 29.1784 20.6974 27.0345 20.608 29.3968L26.7844 37.2578L32.3749 28.0668L38.1341 31.0147C38.1341 31.0147 34.7381 42.9848 28.1149 44.9402C25.0764 45.8434 14.4316 36.4638 14.4316 36.4638Z" fill="#D83F3F"/>
<path d="M27.8668 26.6973C25.7319 26.9951 32.8019 31.1539 38.1343 31.0248C38.1343 31.0248 42.553 23.3822 40.6664 19.8685L37.0122 17.5956L35.5327 20.0075L33.9041 21.0894C33.9141 21.0794 32.6828 26.2903 27.8668 26.6973Z" fill="#1C1715"/>
<path d="M26.5065 26.697C26.6753 26.8459 34.4603 26.7864 35.9299 22.2306C37.3896 17.6747 32.0572 20.841 32.0572 20.841L26.5065 26.697Z" fill="black"/>
<path d="M40.1401 14.6973C40.8948 15.531 41.6792 16.871 41.6196 17.0893C41.5601 17.3176 40.4181 17.933 40.1798 18.0521C39.9514 18.1712 40.4082 17.933 40.4082 17.933L40.16 19.799C40.16 19.799 40.4777 21.8734 39.594 21.0992C38.8591 20.4541 38.3925 18.4392 38.3925 18.4392L38.7201 17.5955L38.4024 15.4615L40.1401 14.6973Z" fill="white"/>
<path d="M41.8381 19.4516L39.8422 18.2109L40.4082 17.9429L41.8381 19.4516Z" fill="#1C1715"/>
<path d="M39.4845 15.5806C40.17 15.5806 40.7257 15.0029 40.7257 14.2903C40.7257 13.5777 40.17 13 39.4845 13C38.799 13 38.2433 13.5777 38.2433 14.2903C38.2433 15.0029 38.799 15.5806 39.4845 15.5806Z" fill="#D83F3F"/>
<path d="M38.4618 16.1367C39.1473 16.1367 39.703 15.559 39.703 14.8463C39.703 14.1337 39.1473 13.556 38.4618 13.556C37.7763 13.556 37.2206 14.1337 37.2206 14.8463C37.2206 15.559 37.7763 16.1367 38.4618 16.1367Z" fill="#D83F3F"/>
<path d="M38.859 17.2779C39.5445 17.2779 40.1003 16.7002 40.1003 15.9876C40.1003 15.275 39.5445 14.6973 38.859 14.6973C38.1735 14.6973 37.6178 15.275 37.6178 15.9876C37.6178 16.7002 38.1735 17.2779 38.859 17.2779Z" fill="#D83F3F"/>
<path d="M38.0746 17.6646C38.7601 17.6646 39.3158 17.0869 39.3158 16.3743C39.3158 15.6617 38.7601 15.084 38.0746 15.084C37.3891 15.084 36.8334 15.6617 36.8334 16.3743C36.8334 17.0869 37.3891 17.6646 38.0746 17.6646Z" fill="#D83F3F"/>
<path d="M39.3858 17.1991C39.4163 16.8881 39.1136 16.604 38.7097 16.5644C38.3058 16.5249 37.9537 16.7449 37.9232 17.0559C37.8928 17.3668 38.1955 17.651 38.5993 17.6905C39.0032 17.7301 39.3553 17.51 39.3858 17.1991Z" fill="white"/>
<path d="M36.4859 20.9003C36.4064 20.6621 35.7709 19.6398 34.6886 18.548C33.7949 17.6448 32.3948 16.4835 30.7663 16.0468C29.108 15.6001 27.5589 16.0269 26.1787 17.3172C23.4281 19.878 22.0876 19.3817 20.3995 18.7465C18.771 18.1411 16.5368 17.3073 11.6116 18.8954L11.3137 17.9028C16.5567 16.2056 18.9796 17.1088 20.7372 17.7639C22.3359 18.3594 23.2097 18.687 25.5134 16.543C27.1618 15.0046 29.0186 14.4984 31.0245 15.0344C34.49 15.9674 37.1611 19.6994 37.4491 20.5629L36.4859 20.9003Z" fill="#D83F3F"/>
<path d="M39.2165 29.2284C38.6009 29.2284 37.8958 29.0994 37.1213 28.8413C35.4233 28.2755 33.6161 27.1738 32.0472 25.7346C30.0016 23.8686 28.8795 24.613 27.1716 25.7346C25.3346 26.9356 23.0507 28.4343 19.0688 26.7271L19.4462 25.7644C22.9613 27.2731 24.9175 25.9827 26.6354 24.8611C28.3433 23.7396 30.1108 22.5882 32.7125 24.9604C35.9297 27.8984 39.3754 28.6924 40.2492 27.9381C40.6961 27.551 40.4379 26.9951 40.2194 26.608L40.5968 25.3673C41.0436 26.1316 41.8976 27.8587 40.8946 28.7321C40.4875 29.0596 39.9215 29.2284 39.2165 29.2284Z" fill="#D83F3F"/>
<path d="M14.7295 22.3999C13.8159 22.3205 13.5975 22.7771 14.0741 22.8366C14.5507 22.8962 13.6571 23.1741 14.0145 23.323C14.372 23.4718 14.9976 23.2237 14.7295 23.5016C14.4514 23.7795 14.8983 23.9681 15.2955 23.7299C15.6927 23.4818 23.6862 23.6009 25.8807 23.1145C27.2312 22.8168 35.6814 22.6381 35.6814 22.6381C35.6814 22.6381 35.3339 17.6555 34.748 17.4967C34.1622 17.3279 25.3743 19.5215 24.6792 19.7498C23.9742 19.988 14.7295 22.3999 14.7295 22.3999Z" fill="white"/>
<path d="M28.8597 18.5886C24.4708 22.658 28.3633 23.5513 28.3633 23.5513C28.3633 23.5513 39.7726 24.4149 38.2335 18.9459C37.1611 15.1543 28.8597 18.5886 28.8597 18.5886Z" fill="#1C1715"/>
<path d="M11.1647 31.124C11.6413 30.7567 12.1577 30.3498 12.7535 30.2208C12.9024 30.191 13.0514 30.1811 13.2003 30.191C13.3592 30.2009 13.4982 30.2704 13.6571 30.2803C13.9451 30.3002 14.1437 30.0322 14.3324 29.8436C14.5905 29.5855 14.8487 29.3175 15.097 29.0495C15.1367 29.0098 15.0672 28.99 15.0374 28.99C14.9877 28.99 14.9282 29.0098 14.8884 29.0495C14.67 29.2878 14.4416 29.526 14.2132 29.7642C14.104 29.8734 13.9947 29.9925 13.8756 30.0917C13.8061 30.1513 13.7664 30.1612 13.6869 30.1414C13.6174 30.1215 13.5479 30.1017 13.4685 30.0917C12.8925 29.9925 12.3166 30.2009 11.83 30.4987C11.542 30.6773 11.264 30.8858 10.9959 31.0942C10.9562 31.124 10.976 31.1538 11.0157 31.1637C11.0654 31.1835 11.125 31.1538 11.1647 31.124Z" fill="#1C1715"/>
<path d="M53.2871 54.9751C53.8631 55.1141 54.3794 54.7171 54.6873 54.2406C55.0348 53.7047 55.1738 53.0396 55.571 52.5235C55.7597 52.2754 56.0179 52.0669 56.3257 52.0372C56.3754 52.0372 56.4449 52.0074 56.4449 51.9478C56.4548 51.8883 56.3853 51.8784 56.3456 51.8784C55.7994 51.9181 55.3923 52.3647 55.1341 52.8312C54.8362 53.3771 54.6773 54.0421 54.2404 54.4987C54.022 54.7171 53.724 54.8957 53.4162 54.8163C53.3666 54.8064 53.2971 54.8163 53.2574 54.856C53.2276 54.9156 53.2375 54.9652 53.2871 54.9751Z" fill="#1C1715"/>
<path d="M41.6592 41.2082C41.2918 41.6549 40.8549 42.042 40.3683 42.3497C40.3286 42.3695 40.3087 42.4192 40.3484 42.4489C40.3882 42.4787 40.4676 42.4589 40.5073 42.4291C41.0038 42.1115 41.4606 41.7244 41.838 41.2579C41.9273 41.1487 41.7088 41.1487 41.6592 41.2082Z" fill="#2A2521"/>
<path d="M45.0552 52.1161C46.6837 51.471 48.0937 50.27 49.0371 48.7514C49.3052 48.3147 49.5435 47.8581 49.7322 47.3817C49.7818 47.2626 49.5534 47.2626 49.5236 47.3519C48.8683 48.9995 47.7065 50.399 46.2468 51.3221C45.8397 51.5802 45.4127 51.7985 44.9658 51.9772C44.9261 51.997 44.8864 52.0467 44.9162 52.0963C44.936 52.1558 45.0155 52.136 45.0552 52.1161Z" fill="#2A2521"/>
<path d="M27.1419 37.0296C26.8241 37.1884 26.9334 37.645 26.9731 37.9328C27.0426 38.3398 27.1816 38.7368 27.3703 39.104C27.41 39.1834 27.6285 39.114 27.5888 39.0445C27.42 38.7269 27.3008 38.3894 27.2313 38.042C27.1916 37.8633 27.1717 37.6946 27.1518 37.5159C27.1419 37.4167 27.122 37.1884 27.2313 37.1288C27.3703 37.0594 27.2412 36.97 27.1419 37.0296Z" fill="#1C1715"/>
<path d="M31.2627 32.8706C31.6301 33.4264 32.3351 33.5653 32.9309 33.4661C33.6856 33.347 34.3608 32.9202 35.0956 32.7415C35.1254 32.7316 35.2049 32.7018 35.1949 32.6522C35.185 32.6026 35.0956 32.6224 35.0658 32.6323C34.3807 32.8011 33.7551 33.1882 33.0699 33.3271C32.4841 33.4462 31.8188 33.3271 31.4712 32.7812C31.4315 32.7217 31.213 32.8011 31.2627 32.8706Z" fill="#1C1715"/>
<path d="M20.4889 29.635C20.4889 29.7839 20.4889 29.9328 20.4889 30.0817C20.4889 30.1214 20.7074 30.0916 20.7074 30.0221C20.7074 29.8732 20.7074 29.7243 20.7074 29.5755C20.7173 29.5258 20.4889 29.5655 20.4889 29.635Z" fill="#1C1715"/>
<path d="M37.8164 18.3496C38.0547 18.6673 38.1937 19.0444 38.2235 19.4415C38.2235 19.5109 38.4519 19.4613 38.442 19.3819C38.4122 18.975 38.2632 18.5779 38.0249 18.2603C37.9753 18.2008 37.7668 18.2802 37.8164 18.3496Z" fill="#1C1715"/>
</svg>
